<svg xmlns="http://www.w3.org/2000/svg" viewBox="0 0 92 27"><style>.st1{fill-rule:evenodd;clip-rule:evenodd}</style><g opacity=".3"><circle class="st1" cx="13.5" cy="13.5" r="9.2"/><path d="M13.5 24.2c-5.9 0-10.8-4.8-10.8-10.8S7.6 2.8 13.5 2.8s10.8 4.8 10.8 10.8-4.9 10.6-10.8 10.6zm0-18.4c-4.3 0-7.8 3.5-7.8 7.8s3.5 7.8 7.8 7.8 7.8-3.5 7.8-7.8-3.5-7.8-7.8-7.8z"/><path class="st1" d="M52.6 10c.1 0 .2.1.2.2v.8c.7-.8 1.7-1.2 2.7-1.2 2.2 0 4 1.9 4 4.2s-1.8 4.2-3.9 4.2c-1 0-2-.4-2.7-1.2v3.8c0 .1-.1.2-.2.2h-1.4c-.1 0-.2-.1-.2-.2V10.2c0-.1.1-.2.2-.2h1.3zm-3.8 0c.1 0 .2.1.2.2v7.6c0 .1-.1.2-.2.2h-1.4c-.1 0-.2-.1-.2-.2V17c-.7.8-1.7 1.2-2.7 1.2-2.2 0-3.9-1.9-3.9-4.2s1.8-4.2 3.9-4.2c1 0 2 .4 2.7 1.2v-.8c0-.1.1-.2.2-.2h1.4zm26.3-.2c-2 0-3.7 1.4-4.2 3.3-.1.6-.1 1.2 0 1.8.4 1.9 2.2 3.3 4.2 3.3 2.3 0 4.3-1.9 4.3-4.2s-1.9-4.2-4.3-4.2zM62.6 7c.1 0 .2.1.2.2V11c.7-.8 1.7-1.2 2.7-1.2 1.9 0 3.5 1.4 3.8 3.3.1.6.1 1.2 0 1.8-.4 1.9-2 3.3-3.8 3.3-1 0-2-.4-2.7-1.2v.8c0 .1-.1.2-.2.2h-1.4c-.1 0-.2-.1-.2-.2V7.2c0-.1.1-.2.2-.2h1.4zm-34 11h-1.4c-.1 0-.2-.1-.2-.2v-7.6c0-.1.1-.2.2-.2h1.4c.1 0 .2.1.2.2v.7c.5-.7 1.3-1.1 2.2-1.1 1.1 0 2.1.6 2.6 1.6.4-1 1.4-1.6 2.4-1.6 1.6 0 2.9 1.2 2.9 2.8v5.2c0 .1-.1.2-.2.2h-1.4c-.1 0-.2-.1-.2-.2v-4.6c0-1-.7-1.7-1.6-1.7-.8 0-1.5.7-1.6 1.6v4.7c0 .1-.1.2-.2.2h-1.4c-.1 0-.2-.1-.2-.2v-4.6c0-1-.7-1.7-1.6-1.7-.8 0-1.5.8-1.6 1.8v4.5c0 .1-.1.2-.3.2zm53.6 0h-1.7c-.1-.1-.1-.2-.1-.3l2.4-3.7-2.4-3.6v-.1c0-.1.1-.2.2-.2h1.6c.1 0 .2.1.3.2l1.4 2.4 1.4-2.4c.1-.1.2-.2.3-.2h1.7c.1.1.1.2.1.3L85.1 14l2.4 3.7v.1c0 .1-.1.2-.2.2h-1.6c-.1 0-.2-.1-.3-.2L84 15.4l-1.4 2.4c-.1.1-.2.2-.4.2zm-7.1-1.5c-1.3 0-2.4-1.1-2.4-2.5s1.1-2.5 2.4-2.5c1.3 0 2.4 1.1 2.4 2.5s-1 2.5-2.4 2.5zm-19.8 0c-1.3 0-2.4-1.1-2.4-2.5s1.1-2.5 2.4-2.5c1.3 0 2.4 1.1 2.4 2.5s-1.1 2.5-2.4 2.5zM47.2 14c0 1.4-1.1 2.5-2.4 2.5-1.3 0-2.4-1.1-2.4-2.5s1.1-2.5 2.4-2.5c1.2 0 2.3 1.1 2.4 2.5zm18.1 2.5c-1.3 0-2.4-1.1-2.4-2.5s1.1-2.5 2.4-2.5c1.3 0 2.4 1.1 2.4 2.5s-1.1 2.5-2.4 2.5z"/><path d="M52.6 22.5h-1.4c-1 0-1.7-.8-1.7-1.7v-1.4c-.2.1-.5.2-.7.2h-1.4c-.3 0-.6-.1-.9-.2-.6.3-1.4.4-2.1.4-1.5 0-2.9-.7-3.9-1.7-.1.9-.8 1.5-1.7 1.5h-1.4c-1 0-1.7-.8-1.7-1.7v-4.6c0-.1-.1-.2-.1-.2s0 .1-.1.3v4.5c0 1-.8 1.7-1.7 1.7h-1.4c-1 0-1.7-.8-1.7-1.7v-4.6c0-.1-.1-.2-.1-.2s-.1.1-.1.4v4.4c0 1-.8 1.7-1.7 1.7h-1.4c-1 0-1.7-.8-1.7-1.7v-7.7c.1-.9.8-1.6 1.7-1.6h1.4c.3 0 .5.1.7.2.5-.2 1.1-.4 1.7-.4 1 0 1.9.3 2.6.8.7-.5 1.6-.8 2.5-.8 1.2 0 2.4.5 3.2 1.3.3.3.5.6.7 1 1-1.4 2.6-2.3 4.4-2.3.7 0 1.4.2 2.1.4.2-.1.5-.2.8-.2H49c.5 0 .9.2 1.2.5.3-.3.7-.5 1.2-.5h1.4c.3 0 .6.1.9.2.6-.3 1.4-.4 2.1-.4 1.5 0 2.9.7 3.9 1.7V7.2c0-1 .8-1.7 1.7-1.7h1.4c1 0 1.7.8 1.7 1.7v1.2c.4-.1.8-.1 1.2-.1 1.9 0 3.7 1.1 4.6 2.7 1-1.7 2.8-2.7 4.9-2.7 1.5 0 2.8.6 3.9 1.5.2-.7.9-1.3 1.7-1.3h1.6c.7 0 1.3.4 1.6 1v.1l.1-.2c.3-.6.9-.9 1.6-.9h1.6c.3 0 .5.1.8.2l.2.1c.3.2.6.7.7 1.1.1.4 0 .9-.3 1.2L86.9 14l2.1 3.3v.6c0 .9-.8 1.7-1.7 1.7h-1.6c-.7 0-1.3-.4-1.6-.9l-.1-.4-.2.3c-.3.6-.9.9-1.6.9h-1.6c-.3 0-.6-.1-.8-.2l-.1-.1c-.3-.2-.6-.6-.7-1-1 .9-2.4 1.4-3.8 1.4h-.1c-2 0-3.8-1.1-4.9-2.7-1 1.7-2.7 2.7-4.6 2.7-.7 0-1.4-.1-2.1-.4-.3.2-.6.2-.9.2h-1.4c-.9 0-1.6-.7-1.7-1.6-1 1.1-2.4 1.7-3.9 1.7-.4 0-.8-.1-1.2-.1v1.2c0 1.1-.8 1.9-1.8 1.9zm28.7-5.4zm5.4-.1zm-11.6-4c-.5 0-.9.5-.9 1 0 .6.4 1 .9 1s.9-.5.9-1c0-.6-.4-1-.9-1zm-19.9 0c-.5 0-.9.5-.9 1 0 .6.4 1 .9 1s.9-.5.9-1c.1-.6-.4-1-.9-1zm10.1 0c-.5 0-.9.4-.9 1s.4 1 .9 1 .9-.5.9-1c0-.6-.4-1-.9-1zm-20.6 0c-.5 0-.9.5-.9 1s.4 1 .9 1c.4 0 .8-.4.9-.8V14c0-.6-.4-1-.9-1zm36.2.7v.6l.2-.3-.2-.3zm.4-2.8c0 .1 0 .1 0 0zm5.4 0zM48.8 10z"/></g><path d="M52.6 10c.1 0 .2.1.2.2v.8c.7-.8 1.7-1.2 2.7-1.2 2.2 0 4 1.9 4 4.2s-1.8 4.2-3.9 4.2c-1 0-2-.4-2.7-1.2v3.8c0 .1-.1.2-.2.2h-1.4c-.1 0-.2-.1-.2-.2V10.2c0-.1.1-.2.2-.2h1.3zm-3.8 0c.1 0 .2.1.2.2v7.6c0 .1-.1.2-.2.2h-1.4c-.1 0-.2-.1-.2-.2V17c-.7.8-1.7 1.2-2.7 1.2-2.2 0-3.9-1.9-3.9-4.2s1.8-4.2 3.9-4.2c1 0 2 .4 2.7 1.2v-.8c0-.1.1-.2.2-.2h1.4zm26.3-.2c-2 0-3.7 1.4-4.2 3.3-.1.6-.1 1.2 0 1.8.4 1.9 2.2 3.3 4.2 3.3 2.4 0 4.3-1.9 4.3-4.2s-1.9-4.2-4.3-4.2zM62.6 7c.1 0 .2.1.2.2V11c.7-.8 1.7-1.2 2.7-1.2 1.9 0 3.5 1.4 3.8 3.3.1.6.1 1.2 0 1.8-.4 1.9-2 3.3-3.8 3.3-1 0-2-.4-2.7-1.2v.8c0 .1-.1.2-.2.2h-1.4c-.1 0-.2-.1-.2-.2V7.2c0-.1.1-.2.2-.2h1.4zm-34 11h-1.4c-.1 0-.2-.1-.2-.2v-7.6c0-.1.1-.2.2-.2h1.4c.1 0 .2.1.2.2v.7c.5-.7 1.3-1.1 2.2-1.1 1.1 0 2.1.6 2.6 1.6.4-1 1.4-1.6 2.4-1.6 1.6 0 2.9 1.2 2.9 2.8v5.2c0 .1-.1.2-.2.2h-1.4c-.1 0-.2-.1-.2-.2v-4.6c0-1-.7-1.7-1.6-1.7-.8 0-1.5.7-1.6 1.6v4.7c0 .1-.1.2-.2.2h-1.4c-.1 0-.2-.1-.2-.2v-4.6c0-1-.7-1.7-1.6-1.7-.8 0-1.5.8-1.6 1.8v4.5c0 .1-.1.2-.3.2zm53.6 0h-1.7c-.1-.1-.1-.2-.1-.3l2.4-3.7-2.4-3.6v-.1c0-.1.1-.2.2-.2h1.6c.1 0 .2.1.3.2l1.4 2.4 1.4-2.4c.1-.1.2-.2.3-.2h1.7c.1.1.1.2.1.3L85.1 14l2.4 3.7v.1c0 .1-.1.2-.2.2h-1.6c-.1 0-.2-.1-.3-.2L84 15.4l-1.4 2.4c-.1.1-.2.2-.4.2zm-7.1-1.5c-1.3 0-2.4-1.1-2.4-2.5s1.1-2.5 2.4-2.5c1.3 0 2.4 1.1 2.4 2.5s-1 2.5-2.4 2.5zm-19.8 0c-1.3 0-2.4-1.1-2.4-2.5s1.1-2.5 2.4-2.5c1.3 0 2.4 1.1 2.4 2.5s-1.1 2.5-2.4 2.5zM47.2 14c0 1.4-1.1 2.5-2.4 2.5s-2.4-1.1-2.4-2.5 1.1-2.5 2.4-2.5c1.2 0 2.3 1.1 2.4 2.5zm18.1 2.5c-1.3 0-2.4-1.1-2.4-2.5s1.1-2.5 2.4-2.5c1.3 0 2.4 1.1 2.4 2.5s-1.1 2.5-2.4 2.5zM13.5 4.2c5.1 0 9.2 4.1 9.2 9.2s-4.1 9.2-9.2 9.2-9.2-4.1-9.2-9.2 4.1-9.2 9.2-9.2zM9 18c-.1-.3-.8-5.8 2.2-8.9.8-.8 2-1.3 3.1-1.3 1.3 0 2.5.5 3.4 1.4.9.9 1.4 2.1 1.4 3.4 0 1.2-.4 2.3-1.3 3.1C14.7 18.9 9 18 9 18zm8.3-5.5l-2 .8-.8 2-.8-2-2-.8 2-.8.8-2 .8 2 2 .8z" fill="#fff" fill-rule="evenodd" clip-rule="evenodd"/></svg>