<?xml version="1.0" encoding="utf-8" ?>
<svg xmlns="http://www.w3.org/2000/svg" xmlns:xlink="http://www.w3.org/1999/xlink" width="475" height="608">
	<path fill="#F96868" d="M303.345 40.2748C321.037 45.8753 337.546 52.5357 353.152 62.6773C356.981 65.1658 360.793 67.603 364.266 70.5867C363.692 70.7794 363.282 70.9142 362.682 70.7585C359.429 69.9149 356.077 68.1522 352.978 66.825C346.268 63.9518 339.592 60.9352 332.793 58.2779C331.25 57.2698 329.352 56.5466 327.735 55.5598C321.527 51.7706 315.621 47.899 309.113 44.6114C307.603 42.9739 305.142 42.4325 303.345 40.2748Z"/>
	<path fill="#BD2A28" d="M333.083 407.763C336.266 407.51 346.75 405.664 348.95 407.514C349.622 408.079 349.691 408.798 349.722 409.628C349.729 409.807 349.728 409.985 349.72 410.164C347.947 415.289 342.356 424.012 339.436 429.187L315.333 471.558L279.281 535.186L266.981 557.028C264.619 561.176 262.373 565.513 259.624 569.415C258.924 570.409 257.619 570.847 256.53 571.279C251.083 573.441 245.139 574.815 239.522 576.524C235.065 577.881 230.106 579.907 225.541 580.643C225.133 580.709 224.864 580.695 224.47 580.576C224.04 580.903 223.635 581.116 223.108 581.233C222.142 581.447 221.416 581.299 220.605 580.766L220.895 580.746C220.393 579.889 219.95 579.043 219.557 578.13C219.88 576.913 220.269 575.621 220.413 574.367C220.663 572.194 220.437 569.971 221.383 567.923C225.046 559.994 229.967 552.324 234.325 544.745L258.766 502.048L289.45 447.513Q293.089 441.061 296.611 434.545C297.936 432.086 299.111 429.508 300.659 427.177C303.495 422.91 307.717 420.069 310.759 416.041L311.041 415.663C311.167 415.629 311.298 415.611 311.419 415.562C312.978 414.927 315.511 412.858 316.216 411.297C316.148 410.569 316.141 410.578 315.624 410.057C319.511 408.57 328.627 408.238 333.083 407.763Z"/>
	<path fill="#7F1C1C" d="M333.083 407.763C336.266 407.51 346.75 405.664 348.95 407.514C349.622 408.079 349.691 408.798 349.722 409.628C349.729 409.807 349.728 409.985 349.72 410.164C348.149 410.371 346.6 410.62 345.044 410.923Q336.565 411.971 328.166 413.537C325.085 414.493 321.566 414.195 318.63 415.445C318.529 415.488 318.425 415.52 318.322 415.557C315.93 421.437 312.077 427.141 308.914 432.653L291.288 463.488L250.06 536.638Q242.767 549.781 235.318 562.837C232.711 567.453 228.528 576.428 224.912 579.893C224.674 580.12 224.578 580.268 224.47 580.576C224.04 580.903 223.635 581.116 223.108 581.233C222.142 581.447 221.416 581.299 220.605 580.766L220.895 580.746C220.393 579.889 219.95 579.043 219.557 578.13C219.88 576.913 220.269 575.621 220.413 574.367C220.663 572.194 220.437 569.971 221.383 567.923C225.046 559.994 229.967 552.324 234.325 544.745L258.766 502.048L289.45 447.513Q293.089 441.061 296.611 434.545C297.936 432.086 299.111 429.508 300.659 427.177C303.495 422.91 307.717 420.069 310.759 416.041L311.041 415.663C311.167 415.629 311.298 415.611 311.419 415.562C312.978 414.927 315.511 412.858 316.216 411.297C316.148 410.569 316.141 410.578 315.624 410.057C319.511 408.57 328.627 408.238 333.083 407.763Z"/>
	<path fill="#F57070" d="M319.289 413.929C318.807 413.274 318.44 412.75 318.201 411.969L318.461 411.534C320.395 411.162 322.633 411.887 324.684 411.779L325.147 411.753L324.845 412.438C323.042 412.786 320.888 413 319.289 413.929Z"/>
	<path fill="#7F1C1C" d="M325.147 411.753C325.906 411.378 325.989 411.456 326.786 411.607L327.18 412.049C326.635 412.927 325.56 412.64 324.916 413.457C325.989 413.696 327.076 413.508 328.166 413.537C325.085 414.493 321.566 414.195 318.63 415.445C318.529 415.488 318.425 415.52 318.322 415.557C318.525 414.892 318.869 414.464 319.289 413.929C320.888 413 323.042 412.786 324.845 412.438L325.147 411.753Z"/>
	<path fill="#BD2A28" d="M150.771 403.635C150.856 403.663 150.941 403.689 151.025 403.718C154.216 404.81 157.212 406.794 160.298 408.183C165.766 410.645 171.822 412.766 177.53 414.626C183.844 416.683 190.768 418.259 197.315 419.369C200.745 419.95 204.387 420.207 207.763 420.986C210.523 423.206 214.87 424.696 218.111 426.2C227.225 430.428 236.745 434.309 245.605 439.022C249.767 437.073 254.128 435.43 258.375 433.666L280.471 424.445C292.089 419.592 303.715 414.138 315.624 410.057C316.141 410.578 316.148 410.569 316.216 411.297C315.511 412.858 312.978 414.927 311.419 415.562C311.298 415.611 311.167 415.629 311.041 415.663L310.759 416.041C307.717 420.069 303.495 422.91 300.659 427.177C299.111 429.508 297.936 432.086 296.611 434.545Q293.089 441.061 289.45 447.513L258.766 502.048L234.325 544.745C229.967 552.324 225.046 559.994 221.383 567.923C220.437 569.971 220.663 572.194 220.413 574.367C220.269 575.621 219.88 576.913 219.557 578.13C219.95 579.043 220.393 579.889 220.895 580.746L220.605 580.766C220.167 580.796 219.736 580.776 219.339 580.565C218.169 579.944 217.221 578.069 216.57 576.962C210.475 566.604 205.196 555.589 199.521 544.985C197.261 540.762 188.193 525.069 187.308 521.407C187.104 521.259 187.008 521.206 186.84 520.981C184.945 518.45 183.212 514.213 181.685 511.349L168.274 486.078L138.479 429.999C135.392 424.063 131.935 418.24 129.063 412.206C128.331 410.667 127.91 409.55 128.034 407.801C128.486 407.107 128.975 406.643 129.6 406.104C130.59 405.676 131.704 405.524 132.757 405.307C136.16 404.883 148.465 404.538 150.771 403.635Z"/>
	<path fill="#F57070" d="M174.508 489.499C173.527 487.728 170.397 483.007 169.999 481.326C169.967 481.194 169.983 481.055 169.976 480.92L169.707 480.743L170.064 481.393L170.104 481.06C171.988 483.605 173.462 488.392 175.661 490.356C174.795 487.365 170.098 481.285 170.514 478.705C171.594 481.73 173.456 484.672 174.973 487.517L183.49 503.412C185.178 506.559 187.015 509.552 187.92 513.031L188.021 513.406L188.079 513.632L187.813 513.704L188.021 513.346L187.935 512.81L187.517 512.92C187.365 512.84 187.175 512.81 187.062 512.681C186.654 512.214 175.023 491.099 174.573 489.737C174.547 489.659 174.529 489.578 174.508 489.499Z"/>
	<defs>
		<linearGradient id="gradient_0" gradientUnits="userSpaceOnUse" x1="169.63179" y1="486.73611" x2="242.16603" y2="375.74258">
			<stop offset="0" stop-color="#F24142"/>
			<stop offset="1" stop-color="#FF7474"/>
		</linearGradient>
	</defs>
	<path fill="url(#gradient_0)" d="M150.771 403.635C150.856 403.663 150.941 403.689 151.025 403.718C154.216 404.81 157.212 406.794 160.298 408.183C165.766 410.645 171.822 412.766 177.53 414.626C183.844 416.683 190.768 418.259 197.315 419.369C200.745 419.95 204.387 420.207 207.763 420.986C210.523 423.206 214.87 424.696 218.111 426.2C227.225 430.428 236.745 434.309 245.605 439.022C249.767 437.073 254.128 435.43 258.375 433.666L280.471 424.445C292.089 419.592 303.715 414.138 315.624 410.057C316.141 410.578 316.148 410.569 316.216 411.297C315.511 412.858 312.978 414.927 311.419 415.562C311.298 415.611 311.167 415.629 311.041 415.663C310.394 416.03 309.693 416.524 308.973 416.692C306.396 418.873 303.915 421.591 301.036 423.317C295.898 426.398 289.661 428.287 284.143 430.669C268.117 437.584 251.925 444.179 235.818 450.909C230.955 452.94 222.868 455.724 218.625 458.255C213.612 455.508 208.337 453.204 203.137 450.835C199.995 449.404 196.894 447.82 193.674 446.575C193.596 446.637 193.52 446.7 193.442 446.761C193.175 446.965 192.935 447.1 192.634 447.244C189.237 446.556 179.679 441.242 175.929 439.423C174.163 445.829 173.505 452.883 172.435 459.448C171.57 464.76 170.154 470.383 169.913 475.752C169.865 476.821 170.005 477.673 170.478 478.641C170.489 478.663 170.502 478.684 170.514 478.705C170.098 481.285 174.795 487.365 175.661 490.356C173.462 488.392 171.988 483.605 170.104 481.06L170.064 481.393L169.707 480.743L169.976 480.92C169.983 481.055 169.967 481.194 169.999 481.326C170.397 483.007 173.527 487.728 174.508 489.499C173.653 489.284 173.547 489.037 173.078 488.281C171.672 486.007 170.584 483.481 169.26 481.147C167.642 478.297 165.703 475.78 164.454 472.718C163.761 473.087 163.787 473.117 163.483 473.849C163.562 476.992 166.516 481.078 167.957 483.913C169.926 487.789 187.382 520.008 187.442 520.858C187.455 521.046 187.352 521.224 187.308 521.407C187.104 521.259 187.008 521.206 186.84 520.981C184.945 518.45 183.212 514.213 181.685 511.349L168.274 486.078L138.479 429.999C135.392 424.063 131.935 418.24 129.063 412.206C128.331 410.667 127.91 409.55 128.034 407.801C128.486 407.107 128.975 406.643 129.6 406.104C130.59 405.676 131.704 405.524 132.757 405.307C136.16 404.883 148.465 404.538 150.771 403.635Z"/>
	<path fill="#BD2A28" d="M129.6 406.104C130.59 405.676 131.704 405.524 132.757 405.307C133.251 406.035 133.719 406.38 134.485 406.772C148.713 414.052 163.526 420.383 177.92 427.348L201.122 438.513C204.79 440.283 208.518 442.46 212.299 443.919C215.611 445.509 219.208 446.971 222.352 448.855C223.851 448.316 225.318 447.618 226.784 446.989C231.244 445.28 242.002 441.312 245.605 439.022C249.767 437.073 254.128 435.43 258.375 433.666L280.471 424.445C292.089 419.592 303.715 414.138 315.624 410.057C316.141 410.578 316.148 410.569 316.216 411.297C315.511 412.858 312.978 414.927 311.419 415.562C311.298 415.611 311.167 415.629 311.041 415.663C310.394 416.03 309.693 416.524 308.973 416.692C308.501 416.518 308.074 416.47 307.591 416.633C304.483 417.682 301.405 419.207 298.361 420.463L275.687 429.988C256.868 437.921 237.922 445.628 219.241 453.879C216.363 452.224 213.178 450.93 210.164 449.536L191.863 441.174L137.211 415.891C133.251 414.067 132.289 408.884 128.034 407.801C128.486 407.107 128.975 406.643 129.6 406.104Z"/>
	<path fill="#AB1919" d="M129.6 406.104C130.59 405.676 131.704 405.524 132.757 405.307C133.251 406.035 133.719 406.38 134.485 406.772C148.713 414.052 163.526 420.383 177.92 427.348L201.122 438.513C204.79 440.283 208.518 442.46 212.299 443.919C215.611 445.509 219.208 446.971 222.352 448.855L223.108 449.091L222.914 449.637C222.083 450.316 221.205 450.7 220.133 450.842C219.381 450.941 218.524 450.663 217.843 450.373C216.463 449.787 215.184 448.953 213.819 448.326C210.053 446.594 206.208 445.042 202.455 443.267C198.768 441.524 195.207 439.575 191.55 437.789C183.142 433.683 174.62 429.743 166.171 425.714L145.555 415.921C140.379 413.466 134.973 411.285 130.287 407.952C130.174 407.424 130.064 406.992 129.815 406.509L129.6 406.104Z"/>
	<defs>
		<linearGradient id="gradient_1" gradientUnits="userSpaceOnUse" x1="186.18594" y1="399.09705" x2="192.61783" y2="450.48318">
			<stop offset="0" stop-color="#894544"/>
			<stop offset="1" stop-color="#C97373"/>
		</linearGradient>
	</defs>
	<path fill="url(#gradient_1)" d="M150.771 403.635C150.856 403.663 150.941 403.689 151.025 403.718C154.216 404.81 157.212 406.794 160.298 408.183C165.766 410.645 171.822 412.766 177.53 414.626C183.844 416.683 190.768 418.259 197.315 419.369C200.745 419.95 204.387 420.207 207.763 420.986C210.523 423.206 214.87 424.696 218.111 426.2C227.225 430.428 236.745 434.309 245.605 439.022C242.002 441.312 231.244 445.28 226.784 446.989C225.318 447.618 223.851 448.316 222.352 448.855C219.208 446.971 215.611 445.509 212.299 443.919C208.518 442.46 204.79 440.283 201.122 438.513L177.92 427.348C163.526 420.383 148.713 414.052 134.485 406.772C133.719 406.38 133.251 406.035 132.757 405.307C136.16 404.883 148.465 404.538 150.771 403.635Z"/>
	<path fill="#F96868" d="M212.299 443.919C212.93 443.467 213.554 442.98 214.211 442.567C216.873 442.812 224.636 443.335 226.258 445.466C226.59 445.902 226.689 446.462 226.784 446.989C225.318 447.618 223.851 448.316 222.352 448.855C219.208 446.971 215.611 445.509 212.299 443.919Z"/>
	<path fill="#AB1919" d="M95.4927 358.541C93.5342 356.731 91.8232 354.087 90.2156 351.959C81.7528 340.755 74.8372 328.897 68.8236 316.228C45.6497 267.407 43.5111 206.99 61.5531 156.267C78.9009 107.495 112.764 65.041 160.051 42.5512Q161.619 41.7868 163.202 41.0552Q164.786 40.3236 166.384 39.6252Q167.982 38.9268 169.595 38.2619Q171.207 37.5969 172.833 36.9657Q174.459 36.3346 176.098 35.7374Q177.737 35.1402 179.388 34.5773Q181.039 34.0145 182.701 33.4861Q184.363 32.9578 186.036 32.4642Q187.709 31.9706 189.392 31.512Q191.075 31.0534 192.767 30.6299Q194.459 30.2065 196.159 29.8184Q197.86 29.4304 199.568 29.0778Q201.276 28.7253 202.991 28.4084Q204.706 28.0915 206.428 27.8105Q208.149 27.5294 209.876 27.2843Q211.603 27.0392 213.335 26.8301Q215.066 26.621 216.802 26.4481Q218.538 26.2752 220.276 26.1385Q222.015 26.0018 223.757 25.9013Q225.498 25.8009 227.241 25.7367Q228.984 25.6726 230.728 25.6448Q232.472 25.617 234.216 25.6256Q235.96 25.6342 237.704 25.6791Q239.448 25.724 241.19 25.8053Q242.932 25.8865 244.673 26.0041Q246.413 26.1216 248.15 26.2754Q249.888 26.4292 251.622 26.6192Q253.355 26.8092 255.085 27.0352Q256.814 27.2613 258.539 27.5234Q260.263 27.7855 261.982 28.0834Q263.7 28.3814 265.412 28.7151Q267.124 29.0488 268.829 29.4181C280.637 32.077 291.964 36.2345 303.345 40.2748C305.142 42.4325 307.603 42.9739 309.113 44.6114C315.621 47.899 321.527 51.7706 327.735 55.5598C329.352 56.5466 331.25 57.2698 332.793 58.2779C339.592 60.9352 346.268 63.9518 352.978 66.825C356.077 68.1522 359.429 69.9149 362.682 70.7585C363.282 70.9142 363.692 70.7794 364.266 70.5867C405.958 103.157 428.609 149.107 434.988 201.02C436.588 214.033 436.876 244.02 433.64 256.217C431.63 271.895 426.56 287.552 420.872 302.238C419.448 305.916 418.007 310.244 415.8 313.53C413.08 320.22 409.083 326.649 405.265 332.762C385.776 363.965 357.227 390.242 323.162 404.659C307.917 411.111 292.437 414.832 276.093 417.052C271.446 417.684 266.743 418.383 262.053 418.557C248.375 420.638 236.39 421.981 222.512 421.831C217.599 421.778 212.658 420.938 207.763 420.986C204.387 420.207 200.745 419.95 197.315 419.369C190.768 418.259 183.844 416.683 177.53 414.626C171.822 412.766 165.766 410.645 160.298 408.183C157.212 406.794 154.216 404.81 151.025 403.718C150.941 403.689 150.856 403.663 150.771 403.635L149.12 402.817C145.528 401.202 142.173 398.896 138.876 396.762C125.018 387.786 112.118 377.535 101.112 365.163C99.2165 363.033 97.1043 360.887 95.4927 358.541ZM257.385 133.095C237.222 134.22 219.421 141.079 204.234 154.553C200.963 157.455 198.245 160.796 195.124 163.804C177.277 186.106 169.176 212.451 172.339 240.968C174.96 264.598 185.652 285.924 203.445 301.713C207.529 305.053 211.7 308.186 216.286 310.813C218.669 312.178 221.522 313.283 223.769 314.791C228.789 316.808 233.618 318.234 238.872 319.521C241.292 318.688 243.948 318.228 246.417 317.467C250.075 316.339 253.596 314.804 257.122 313.327C261.66 310.669 266.286 308.277 270.552 305.166C292.34 289.273 305.75 264.499 309.921 238.157C310.248 233.416 311.042 228.772 311.188 223.997Q311.277 220.689 311.157 217.381Q311.037 214.074 310.709 210.78Q310.382 207.487 309.847 204.221Q309.312 200.954 308.573 197.728Q307.833 194.502 306.892 191.329Q305.951 188.156 304.812 185.049Q303.672 181.941 302.34 178.912Q301.007 175.882 299.486 172.943C292.013 158.773 280.867 146.208 267.131 137.866C264.032 135.984 260.865 134.169 257.385 133.095Z"/>
	<path fill="#BD2A28" d="M243.844 38.5852L244.501 38.8748C244.835 39.9457 244.344 40.8152 243.891 41.7889L243.258 41.5633L243.092 41.1341C243.492 40.34 243.735 39.7096 243.824 38.8184C243.832 38.7408 243.838 38.6629 243.844 38.5852Z"/>
	<path fill="#F57070" d="M139.297 195.857C138.922 200.271 137.875 204.695 137.129 209.064C136.643 208.385 136.768 207.763 136.037 207.315C136.559 203.573 137.685 199.265 139.297 195.857Z"/>
	<path fill="#BD2A28" d="M378.277 112.916C377.188 111.573 367.425 96.8303 366.9 95.5772C366.761 95.2461 366.783 95.0074 366.792 94.6567L367.085 94.3827C369.712 96.188 377.823 108.814 379.554 112.214L378.485 111.724C378.383 112.127 378.313 112.501 378.277 112.916Z"/>
	<path fill="#F96868" d="M378.277 112.916C378.313 112.501 378.383 112.127 378.485 111.724L379.554 112.214C381.896 116.61 384.533 120.846 386.856 125.251C389.125 129.551 391.056 134.114 392.97 138.582L392.056 138.913L391.393 138.345L391.204 138.435C389.76 136.756 386.756 128.66 385.428 125.991C383.228 121.565 380.756 117.193 378.277 112.916Z"/>
	<path fill="#BD2A28" d="M344.717 78.7073C349.032 80.0181 358.958 94.3044 363.366 95.783C362.293 92.679 359.655 90.301 358.342 87.3511L358.824 86.8212C359.182 87.0574 359.518 87.3044 359.853 87.5711C362.183 91.9096 365.688 95.7823 367.654 100.266C368.151 101.397 368.568 102.374 368.103 103.569C367.387 103.475 366.857 102.866 366.38 102.36C363.407 99.211 360.726 95.6615 357.844 92.4064Q351.483 85.3631 344.717 78.7073Z"/>
	<path fill="#7F1C1C" d="M300.311 404.836C300.326 404.819 313.677 396.204 314.593 395.746C314.621 395.943 314.731 396.146 314.676 396.338C314.452 397.131 307.022 401.094 306.538 402.008C311.251 401.721 330.137 391.207 333.502 387.879C334.029 387.357 334.035 387.132 334.019 386.406C333.54 385.92 333.382 385.704 332.685 385.566C329.651 384.966 325.739 390.046 323.269 391.504C321.93 392.295 319.698 393.582 318.12 393.188L318.025 392.677C318.174 392.42 318.327 392.174 318.507 391.936C321.866 387.5 330.63 383.906 335.026 380.193C339.386 376.511 343.906 372.525 347.841 368.399C351.389 364.679 354.623 360.673 358.092 356.887C358.782 356.133 359.135 355.64 360.176 355.482C358.75 357.689 356.7 359.612 354.947 361.578C347.392 370.052 339.207 378.371 329.893 384.933C331.245 384.947 333.177 384.687 334.206 385.727C334.606 386.131 334.54 386.315 334.627 386.852C333.262 390.834 318.66 397.839 314.417 399.906C312.003 401.082 302.735 404.587 300.311 404.836Z"/>
	<defs>
		<linearGradient id="gradient_2" gradientUnits="userSpaceOnUse" x1="141.70813" y1="238.86937" x2="135.21742" y2="239.30046">
			<stop offset="0" stop-color="#E04546"/>
			<stop offset="1" stop-color="#FB7172"/>
		</linearGradient>
	</defs>
	<path fill="url(#gradient_2)" d="M136.037 207.315C136.768 207.763 136.643 208.385 137.129 209.064C134.712 227.395 136.222 245.615 142.244 263.132C144.013 268.278 147.052 273.335 148.412 278.53L148.495 278.858Q148.15 278.365 147.818 277.862C135.229 258.763 131.565 229.419 136.037 207.315Z"/>
	<path fill="#BD2A28" d="M242.071 34.7499C244.338 35.0512 261.288 35.8599 262.736 35.3132C263.134 35.163 263.518 34.9633 263.956 34.9835C266.408 35.097 269.581 36.3342 271.962 36.9796C293.178 42.729 312.557 53.0157 329.942 66.3354C333.046 68.714 336.484 70.8668 339.028 73.8703C335.393 72.499 326.99 64.552 323.07 61.7938C310.151 52.7029 290.95 42.7423 275.755 38.613C274.123 38.1694 271.629 37.196 270.003 37.4461L269.506 38.088C269.386 38.0462 269.268 38.0014 269.147 37.9627C266.256 37.0331 259.842 38.9586 257.766 36.7575C257.905 36.2581 257.794 36.4689 258.067 36.1085C254.943 35.0676 252.753 36.6915 249.79 36.7926C248.993 36.8197 247.848 35.8208 247.034 35.5986C245.703 35.2346 244.328 35.7142 242.847 35.3269L242.682 35.5322C243.5 36.1039 246.392 35.817 247.485 35.8198C245.747 36.8554 244.161 37.8029 242.223 38.4167C241.197 39.9617 239.9 51.2655 239.466 53.9069C237.561 65.4887 235.87 77.1394 233.842 88.6952L231.228 104.355C230.857 106.608 230.134 108.867 230.152 111.162C230.892 111.699 231.659 111.993 231.922 112.894C231.631 113.63 231.398 114.015 230.852 114.588L229.899 114.252C229.538 115.069 229.262 115.488 228.385 115.789C225.705 116.709 218.333 116.44 215.476 116.06C219.465 115.129 224.739 115.703 228.874 115.706C232.927 88.6809 237.593 61.7094 242.071 34.7499Z"/>
	<path fill="#F57070" d="M391.204 138.435L391.393 138.345L392.056 138.913L392.97 138.582C394.976 142.964 396.512 147.464 398.061 152.022C405.4 173.616 408.515 195.67 409.115 218.424C409.28 224.704 408.191 231.03 408.512 237.284C407.321 240.686 408.206 244.924 407.11 248.401C406.157 249.822 406.058 251.883 405.8 253.551C405.755 250.865 406.33 248.269 406.159 245.583L406.128 245.135C406.129 242.683 406.526 240.098 406.669 237.636Q407.095 229.269 407.376 220.896C407.536 214.8 406.973 208.474 406.533 202.388C406.476 197.978 405.712 193.522 405.077 189.167C402.513 171.569 397.701 154.963 391.204 138.435Z"/>
	<path fill="#7F1C1C" d="M140.23 170.135C140.282 170.074 140.333 170.012 140.384 169.95C143.244 166.42 145.499 162.223 148.08 158.464C151.916 152.879 160.92 142.279 166.528 138.873C164.935 140.638 163.01 142.042 161.327 143.715C159.317 145.712 157.726 148.103 155.859 150.228C154.19 152.128 152.321 153.792 150.781 155.813C146.792 161.046 143.899 167.08 139.924 172.278C139.827 172.928 139.961 173.155 140.256 173.704C140.578 174.304 140.811 174.721 140.602 175.403C140.089 177.082 139.134 178.651 138.483 180.283C136.405 185.489 134.308 190.947 132.632 196.294C131.675 199.345 130.779 206.395 129.754 208.351L129.277 207.77Q129.415 206.829 129.59 205.895L129.31 205.535C128.688 205.994 128.581 206.047 128.438 206.807C128.17 208.23 129.058 209.67 128.848 211.055C128.735 211.803 128.01 212.288 127.878 212.927C127.861 213.009 127.84 213.09 127.823 213.172C127.226 216.07 127.308 220.22 127.505 223.199C127.595 224.559 127.955 226.069 127.884 227.416C127.843 228.192 127.455 228.941 127.45 229.697C127.436 231.68 128.797 234.069 129.013 236.179C129.318 239.151 129.898 250.928 130.534 252.484C130.675 252.827 130.692 252.983 130.617 253.344C129.704 252.372 129.558 249.681 129.147 248.304C128.616 246.521 128.434 244.684 128.09 242.862C127.845 241.561 127.374 240.345 127.19 239.022C126.054 230.877 126.325 221.813 126.923 213.617C127.112 211.018 128.229 206.219 127.911 203.96C130.324 190.997 133.622 181.569 140.23 170.135Z"/>
	<path fill="#DF4A49" d="M162.717 304.684C160.563 302.44 158.219 300.299 156.205 297.931C152.416 293.475 149.418 288.275 146.657 283.145L146.792 282.803C148.608 283.606 152.513 289.316 154.026 291.103Q160.086 298.326 167.253 304.451C171.528 308.153 176.538 311.694 181.608 314.214C184.104 315.454 187.323 316.477 189.567 318.021Q193.148 319.571 196.87 320.74Q200.593 321.908 204.417 322.682C207.574 323.311 210.777 323.693 213.906 324.461C206.745 325.717 199.73 324.052 192.93 321.874C190.908 321.226 188.717 320.247 186.617 320.028C178.785 317.608 168.847 310.037 162.717 304.684Z"/>
	<path fill="#DF4A49" d="M203.445 301.713C207.529 305.053 211.7 308.186 216.286 310.813C218.669 312.178 221.522 313.283 223.769 314.791L223.456 315.149C225.152 316.067 227.961 316.5 229.219 317.771C229.027 318.243 229.054 318.274 228.575 318.474C225.186 319.893 219.914 318.194 217.006 319.819C216.561 320.067 215.691 320.683 215.234 320.791C212.434 321.452 205.528 318.312 202.627 319.036C200.396 319.057 196.834 317.422 194.644 316.708C187.428 313.56 181.086 309.721 174.402 305.637C178.594 305.278 201.479 303.831 203.445 301.713Z"/>
	<path fill="#7F1C1C" d="M406.533 202.388C406.973 208.474 407.536 214.8 407.376 220.896Q407.095 229.269 406.669 237.636C406.526 240.098 406.129 242.683 406.128 245.135L406.159 245.583C406.33 248.269 405.755 250.865 405.8 253.551C406.058 251.883 406.157 249.822 407.11 248.401C408.206 244.924 407.321 240.686 408.512 237.284C409.633 238.868 407.527 250.941 407.078 253.597C405.978 260.089 404.774 266.964 403.129 273.334C402.293 276.571 401.034 279.728 400.073 282.934C398.76 287.313 397.801 291.164 395.798 295.323C395.423 296.103 395.03 296.624 394.407 297.224L394.609 296.916L394.481 297.578C398.594 297.231 402.768 296.843 406.898 296.795C410.909 296.748 418.731 297.443 422.125 296.607C423.655 294.257 424.435 290.921 425.263 288.244C426.77 283.374 428.425 278.431 429.537 273.456C430.633 268.552 431.281 263.438 432.448 258.586C432.625 257.846 432.916 256.403 433.64 256.217C431.63 271.895 426.56 287.552 420.872 302.238C419.448 305.916 418.007 310.244 415.8 313.53L415.799 313.27C415.799 312.514 415.857 311.871 416.018 311.133L415.937 311.557L415.758 311.226C415.048 312.603 411.202 318.281 410.316 319.2C409.879 319.652 409.068 319.917 408.49 320.102C403.705 321.635 396.53 320.852 391.301 321.888C387.95 322.551 383.627 323.818 380.903 325.954C378.131 328.127 375.946 333.157 374.085 336.164C371.6 340.178 368.747 344.853 365.653 348.412L365.265 348.298C365.266 348.068 365.25 347.982 365.347 347.741C366.408 345.135 369.295 342.61 370.838 340.205C375.435 333.039 379.448 325.508 384.004 318.333C385.154 316.522 386.497 310.501 387.703 309.788C387.817 310.076 387.842 310.089 387.873 310.45C387.947 311.284 387.656 311.973 387.12 312.585C387.072 312.639 387.022 312.69 386.974 312.743L386.99 313.162C388.427 312.292 392.12 303.238 392.757 301.326C393.183 300.048 393.36 298.666 393.724 297.358C392.269 297.345 388.357 307.459 387.374 309.205C386.495 310.766 385.21 311.914 384.318 313.436C383.428 314.955 382.283 317.839 380.671 318.609L380.298 318.351C382.09 315.314 384.273 312.498 385.984 309.425C387.677 306.386 388.921 303.108 390.607 300.065C391.858 297.809 393.443 295.656 394.467 293.288C396.237 289.192 396.904 284.937 398.075 280.699C398.737 278.303 399.684 275.99 400.289 273.576Q401.758 267.716 402.88 261.78Q404.001 255.844 404.771 249.853Q405.541 243.861 405.957 237.834Q406.372 231.808 406.432 225.767C406.45 222.223 405.851 204.159 406.533 202.388Z"/>
	<path fill="#F57070" d="M403.797 260.033C403.767 260.92 403.483 262.199 404.085 262.847L404.574 262.805C404.177 265.241 403.772 267.775 403.085 270.15L402.53 270.256C402.054 269.386 402.276 268.449 402.316 267.469C402.557 265.008 403.249 262.444 403.797 260.033Z"/>
	<path fill="#DF4A49" d="M402.316 267.469C402.276 268.449 402.054 269.386 402.53 270.256L403.085 270.15C402.534 275.021 400.255 280.306 398.564 284.885C398.351 280.55 401.281 272.054 402.316 267.469Z"/>
	<path fill="#F96868" d="M406.128 245.135L406.159 245.583C406.33 248.269 405.755 250.865 405.8 253.551C406.058 251.883 406.157 249.822 407.11 248.401C406.804 253.238 405.594 258.08 404.574 262.805L404.085 262.847C403.483 262.199 403.767 260.92 403.797 260.033C403.912 258.136 404.446 256.13 404.754 254.247C405.251 251.216 405.642 248.168 406.128 245.135Z"/>
	<defs>
		<linearGradient id="gradient_3" gradientUnits="userSpaceOnUse" x1="209.23058" y1="154.69069" x2="224.84615" y2="118.71659">
			<stop offset="0" stop-color="#A33434"/>
			<stop offset="1" stop-color="#E66D6D"/>
		</linearGradient>
	</defs>
	<path fill="url(#gradient_3)" d="M223.631 125.753C232.153 125.931 249.945 127.449 256.953 132.324L257.385 133.095C237.222 134.22 219.421 141.079 204.234 154.553C200.963 157.455 198.245 160.796 195.124 163.804C195.691 160.452 202.882 154.873 205.593 152.462C203.843 151.47 202.668 149.785 200.765 148.935C194.015 145.922 185.254 146.315 179.506 141.149L179.189 140.859C179.097 140.879 179.003 140.891 178.913 140.917C176.22 141.707 173.249 144.626 171.128 146.486C160.968 155.398 152.171 165.055 145.651 177.011L145.497 176.671C145.963 174.927 147.249 173.474 148.228 171.962C153.023 164.562 158.202 157.813 164.168 151.309C167.73 147.427 172.017 144.576 176.378 141.69C191.166 131.904 205.839 126.509 223.631 125.753Z"/>
	<defs>
		<linearGradient id="gradient_4" gradientUnits="userSpaceOnUse" x1="205.0509" y1="218.97336" x2="313.90134" y2="246.31534">
			<stop offset="0" stop-color="#FD4848"/>
			<stop offset="1" stop-color="#FE7778"/>
		</linearGradient>
	</defs>
	<path fill="url(#gradient_4)" d="M228.903 118.893L226.833 118.476C227.079 118.097 227.48 118.114 227.911 118.022C241.477 115.121 259.435 122.78 270.621 130.113C293.714 145.253 309.196 169.825 314.753 196.715C321.013 227.008 315.375 259.717 298.296 285.606C292.194 294.856 285.047 302.696 276.609 309.856C274.241 311.865 270.754 313.595 268.717 315.69C263.677 318.746 258.584 321.745 253.152 324.062C238.792 330.187 220.622 333.058 205.272 329.351C200.796 328.27 196.29 326.534 192.373 324.079C190.318 323.808 187.983 321.468 186.617 320.028C188.717 320.247 190.908 321.226 192.93 321.874C199.73 324.052 206.745 325.717 213.906 324.461C210.777 323.693 207.574 323.311 204.417 322.682Q200.593 321.908 196.87 320.74Q193.148 319.571 189.567 318.021C189.877 317.798 190.053 317.709 190.436 317.634C191.34 317.457 192.04 317.179 192.899 316.916C193.504 316.731 193.744 316.785 194.305 317.044L194.644 316.708C196.834 317.422 200.396 319.057 202.627 319.036C205.528 318.312 212.434 321.452 215.234 320.791C215.691 320.683 216.561 320.067 217.006 319.819C219.914 318.194 225.186 319.893 228.575 318.474C229.054 318.274 229.027 318.243 229.219 317.771C227.961 316.5 225.152 316.067 223.456 315.149L223.769 314.791C228.789 316.808 233.618 318.234 238.872 319.521C241.292 318.688 243.948 318.228 246.417 317.467C250.075 316.339 253.596 314.804 257.122 313.327C261.66 310.669 266.286 308.277 270.552 305.166C292.34 289.273 305.75 264.499 309.921 238.157C310.248 233.416 311.042 228.772 311.188 223.997Q311.277 220.689 311.157 217.381Q311.037 214.074 310.709 210.78Q310.382 207.487 309.847 204.221Q309.312 200.954 308.573 197.728Q307.833 194.502 306.892 191.329Q305.951 188.156 304.812 185.049Q303.672 181.941 302.34 178.912Q301.007 175.882 299.486 172.943C292.013 158.773 280.867 146.208 267.131 137.866C264.032 135.984 260.865 134.169 257.385 133.095L256.953 132.324C249.945 127.449 232.153 125.931 223.631 125.753C224.482 125.182 226.035 125.4 227.039 125.397C230.618 125.388 234.06 125.508 237.599 126.076C240.332 126.515 243.008 127.208 245.776 127.41L246.055 127.097C245.787 126.91 245.554 126.736 245.345 126.482C245.288 126.412 245.234 126.34 245.176 126.27C243.589 124.371 240.537 123.716 238.451 122.407C237.513 121.819 236.769 120.799 235.727 120.424C233.661 119.68 231.407 119.547 229.237 119.352L228.903 118.893Z"/>
	<path fill="#BD2A28" d="M238.872 319.521C241.292 318.688 243.948 318.228 246.417 317.467C250.075 316.339 253.596 314.804 257.122 313.327C255.689 314.895 253.706 315.129 252.23 316.537L252.292 317.115C253.012 317.552 253.281 317.462 254.107 317.277C254.502 317.189 254.887 317.058 255.276 316.951C255.646 316.85 255.496 316.857 255.841 316.934C240.883 324.302 225.297 328.015 208.607 326.218C203.557 325.675 198.271 324.239 193.545 323.781C193.111 323.739 192.749 323.882 192.373 324.079C190.318 323.808 187.983 321.468 186.617 320.028C188.717 320.247 190.908 321.226 192.93 321.874C199.73 324.052 206.745 325.717 213.906 324.461C210.777 323.693 207.574 323.311 204.417 322.682Q200.593 321.908 196.87 320.74Q193.148 319.571 189.567 318.021C189.877 317.798 190.053 317.709 190.436 317.634C191.34 317.457 192.04 317.179 192.899 316.916C193.504 316.731 193.744 316.785 194.305 317.044L194.644 316.708C196.834 317.422 200.396 319.057 202.627 319.036C205.528 318.312 212.434 321.452 215.234 320.791C215.691 320.683 216.561 320.067 217.006 319.819C219.914 318.194 225.186 319.893 228.575 318.474C229.054 318.274 229.027 318.243 229.219 317.771C227.961 316.5 225.152 316.067 223.456 315.149L223.769 314.791C228.789 316.808 233.618 318.234 238.872 319.521Z"/>
	<path fill="#F96868" d="M223.769 314.791C228.789 316.808 233.618 318.234 238.872 319.521C238.782 319.558 238.692 319.594 238.602 319.631C229.949 323.27 211.643 321.454 202.627 319.036C205.528 318.312 212.434 321.452 215.234 320.791C215.691 320.683 216.561 320.067 217.006 319.819C219.914 318.194 225.186 319.893 228.575 318.474C229.054 318.274 229.027 318.243 229.219 317.771C227.961 316.5 225.152 316.067 223.456 315.149L223.769 314.791Z"/>
	<defs>
		<linearGradient id="gradient_5" gradientUnits="userSpaceOnUse" x1="233.01161" y1="147.63023" x2="310.27969" y2="157.77748">
			<stop offset="0" stop-color="#BA2220"/>
			<stop offset="1" stop-color="#F33C40"/>
		</linearGradient>
	</defs>
	<path fill="url(#gradient_5)" d="M228.903 118.893C233.19 118.855 237.373 119.778 241.498 120.857C256.551 124.795 269.871 132.665 280.941 143.553Q281.899 144.479 282.833 145.429Q283.768 146.379 284.679 147.352Q285.589 148.325 286.475 149.321Q287.361 150.316 288.222 151.334Q289.083 152.351 289.918 153.389Q290.753 154.428 291.562 155.487Q292.371 156.546 293.153 157.625Q293.935 158.704 294.69 159.802Q295.445 160.9 296.173 162.016Q296.9 163.133 297.6 164.267Q298.299 165.401 298.97 166.553Q299.641 167.704 300.282 168.872Q300.924 170.04 301.537 171.224Q302.149 172.407 302.732 173.606Q303.315 174.804 303.867 176.017Q304.42 177.229 304.942 178.455Q305.464 179.681 305.956 180.92Q306.447 182.159 306.907 183.409Q307.367 184.66 307.796 185.922Q308.225 187.183 308.623 188.455Q309.02 189.727 309.385 191.009Q309.751 192.29 310.084 193.581Q310.417 194.871 310.718 196.169Q311.019 197.467 311.288 198.773Q311.556 200.078 311.792 201.389Q312.028 202.701 312.231 204.018Q312.434 205.335 312.604 206.657Q312.774 207.979 312.911 209.304Q313.048 210.63 313.152 211.958Q313.256 213.287 313.326 214.618Q313.397 215.948 313.435 217.28Q313.472 218.612 313.476 219.945C313.513 224.658 313.733 231.296 312.149 235.778C311.877 234.698 312.188 233.766 312.51 232.73C312.991 231.182 312.856 228.863 312.948 227.216C313.646 214.704 312.174 199.957 307.923 188.086C306.396 183.821 303.783 179.615 301.891 175.457L301.466 175.322C301.502 175.386 301.538 175.45 301.573 175.515C302.412 177.09 302.913 178.993 303.628 180.656Q304.832 183.418 305.87 186.247Q306.907 189.077 307.774 191.963Q308.641 194.849 309.334 197.781Q310.027 200.714 310.543 203.682Q311.06 206.651 311.399 209.645Q311.738 212.64 311.898 215.649Q312.057 218.658 312.037 221.671Q312.017 224.684 311.817 227.691C311.65 230.518 311.684 233.639 310.896 236.37C310.695 237.068 310.374 237.599 309.921 238.157C310.248 233.416 311.042 228.772 311.188 223.997Q311.277 220.689 311.157 217.381Q311.037 214.074 310.709 210.78Q310.382 207.487 309.847 204.221Q309.312 200.954 308.573 197.728Q307.833 194.502 306.892 191.329Q305.951 188.156 304.812 185.049Q303.672 181.941 302.34 178.912Q301.007 175.882 299.486 172.943C292.013 158.773 280.867 146.208 267.131 137.866C264.032 135.984 260.865 134.169 257.385 133.095L256.953 132.324C249.945 127.449 232.153 125.931 223.631 125.753C224.482 125.182 226.035 125.4 227.039 125.397C230.618 125.388 234.06 125.508 237.599 126.076C240.332 126.515 243.008 127.208 245.776 127.41L246.055 127.097C245.787 126.91 245.554 126.736 245.345 126.482C245.288 126.412 245.234 126.34 245.176 126.27C243.589 124.371 240.537 123.716 238.451 122.407C237.513 121.819 236.769 120.799 235.727 120.424C233.661 119.68 231.407 119.547 229.237 119.352L228.903 118.893Z"/>
	<defs>
		<linearGradient id="gradient_6" gradientUnits="userSpaceOnUse" x1="352.71655" y1="300.28943" x2="331.58032" y2="427.64807">
			<stop offset="0" stop-color="#8D2727"/>
			<stop offset="1" stop-color="#DA7170"/>
		</linearGradient>
	</defs>
	<path fill="url(#gradient_6)" d="M365.653 348.412C368.747 344.853 371.6 340.178 374.085 336.164C375.946 333.157 378.131 328.127 380.903 325.954C383.627 323.818 387.95 322.551 391.301 321.888C396.53 320.852 403.705 321.635 408.49 320.102C409.068 319.917 409.879 319.652 410.316 319.2C411.202 318.281 415.048 312.603 415.758 311.226L415.937 311.557L416.018 311.133C415.857 311.871 415.799 312.514 415.799 313.27L415.8 313.53C413.08 320.22 409.083 326.649 405.265 332.762C385.776 363.965 357.227 390.242 323.162 404.659C307.917 411.111 292.437 414.832 276.093 417.052C271.446 417.684 266.743 418.383 262.053 418.557C266.774 415.968 272.668 415.347 277.779 413.591C285.414 410.968 292.805 407.794 300.311 404.836C302.735 404.587 312.003 401.082 314.417 399.906C318.66 397.839 333.262 390.834 334.627 386.852C334.54 386.315 334.606 386.131 334.206 385.727C333.177 384.687 331.245 384.947 329.893 384.933C339.207 378.371 347.392 370.052 354.947 361.578C356.7 359.612 358.75 357.689 360.176 355.482C362.294 353.809 364.086 350.621 365.653 348.412Z"/>
	<defs>
		<linearGradient id="gradient_7" gradientUnits="userSpaceOnUse" x1="326.81937" y1="245.18159" x2="55.409626" y2="178.85564">
			<stop offset="0" stop-color="#FA2827"/>
			<stop offset="1" stop-color="#FF7C7C"/>
		</linearGradient>
	</defs>
	<path fill="url(#gradient_7)" d="M95.4927 358.541C93.5342 356.731 91.8232 354.087 90.2156 351.959C81.7528 340.755 74.8372 328.897 68.8236 316.228C45.6497 267.407 43.5111 206.99 61.5531 156.267C78.9009 107.495 112.764 65.041 160.051 42.5512Q161.619 41.7868 163.202 41.0552Q164.786 40.3236 166.384 39.6252Q167.982 38.9268 169.595 38.2619Q171.207 37.5969 172.833 36.9657Q174.459 36.3346 176.098 35.7374Q177.737 35.1402 179.388 34.5773Q181.039 34.0145 182.701 33.4861Q184.363 32.9578 186.036 32.4642Q187.709 31.9706 189.392 31.512Q191.075 31.0534 192.767 30.6299Q194.459 30.2065 196.159 29.8184Q197.86 29.4304 199.568 29.0778Q201.276 28.7253 202.991 28.4084Q204.706 28.0915 206.428 27.8105Q208.149 27.5294 209.876 27.2843Q211.603 27.0392 213.335 26.8301Q215.066 26.621 216.802 26.4481Q218.538 26.2752 220.276 26.1385Q222.015 26.0018 223.757 25.9013Q225.498 25.8009 227.241 25.7367Q228.984 25.6726 230.728 25.6448Q232.472 25.617 234.216 25.6256Q235.96 25.6342 237.704 25.6791Q239.448 25.724 241.19 25.8053Q242.932 25.8865 244.673 26.0041Q246.413 26.1216 248.15 26.2754Q249.888 26.4292 251.622 26.6192Q253.355 26.8092 255.085 27.0352Q256.814 27.2613 258.539 27.5234Q260.263 27.7855 261.982 28.0834Q263.7 28.3814 265.412 28.7151Q267.124 29.0488 268.829 29.4181C280.637 32.077 291.964 36.2345 303.345 40.2748C305.142 42.4325 307.603 42.9739 309.113 44.6114C315.621 47.899 321.527 51.7706 327.735 55.5598C329.352 56.5466 331.25 57.2698 332.793 58.2779C332.68 58.8008 332.528 59.0894 332.828 59.5837C333.572 60.808 339.891 65.3809 341.546 66.7503C345.419 69.9543 348.773 73.7478 352.561 77.0509C353.285 76.9508 353.734 76.6903 354.344 76.3224L354.72 76.4323C354.434 77.6917 354.12 78.338 354.851 79.4668C355.679 80.7452 357.469 82.7216 358.657 83.666C359.032 83.9635 360.11 84.1167 360.589 84.206L360.79 84.2422C360.418 85.3526 359.889 86.3923 359.853 87.5711C359.518 87.3044 359.182 87.0574 358.824 86.8212L358.342 87.3511C359.655 90.301 362.293 92.679 363.366 95.783C358.958 94.3044 349.032 80.0181 344.717 78.7073C342.681 77.265 340.869 75.5486 339.028 73.8703C336.484 70.8668 333.046 68.714 329.942 66.3354C312.557 53.0157 293.178 42.729 271.962 36.9796C269.581 36.3342 266.408 35.097 263.956 34.9835C263.518 34.9633 263.134 35.163 262.736 35.3132C261.288 35.8599 244.338 35.0512 242.071 34.7499C237.593 61.7094 232.927 88.6809 228.874 115.706C224.739 115.703 219.465 115.129 215.476 116.06C203.188 116.468 190.688 120.747 179.85 126.345C177.807 127.4 175.178 128.635 173.445 130.13C172.298 132.096 164.784 136.925 162.431 138.833C151.18 147.956 139.321 163.554 134.614 177.265C133.995 179.068 131.715 183.509 131.872 184.885L132.032 184.983C132.978 183.928 133.487 181.484 134.056 180.114C135.486 176.664 138.266 170.829 140.924 168.27L140.23 170.135C133.622 181.569 130.324 190.997 127.911 203.96C125.706 207.688 125.315 230.806 125.738 236.051Q126.515 245.082 128.69 253.881C130.139 259.545 131.81 265.28 134.238 270.611C135.736 273.898 137.599 277.015 139.222 280.24C139.418 280.628 139.394 280.433 139.328 280.825L139.143 280.666L139.356 280.421C138.301 280.162 137.118 278.178 136.403 277.277C137.903 282.696 142.243 287.837 145.66 292.209C147.389 294.422 148.641 296.93 150.408 299.103C155.788 305.715 162.343 310.852 169.306 315.68C170.511 316.515 171.631 317.604 172.886 318.331C173.475 318.673 174.311 319.003 175.005 318.843C175.817 318.655 176.51 317.878 177.35 318.376C178.811 319.243 179.5 321.266 180.857 322.276C180.628 322.11 180.554 321.977 180.406 321.742L181.108 321.844L181.065 321.07C180.965 321.014 180.864 320.96 180.766 320.9C178.931 319.779 178.263 316.913 176.602 315.64C173.545 313.298 163.954 308.268 162.717 304.684C168.847 310.037 178.785 317.608 186.617 320.028C187.983 321.468 190.318 323.808 192.373 324.079C196.29 326.534 200.796 328.27 205.272 329.351C220.622 333.058 238.792 330.187 253.152 324.062C258.584 321.745 263.677 318.746 268.717 315.69C267.403 318.827 253.845 324.38 250.245 325.866C244.753 328.133 237.067 330.068 231.173 330.812C229.222 331.058 227.222 330.856 225.266 331.028C223.56 331.178 222.111 331.513 220.362 331.451C217.606 331.354 214.578 330.786 211.85 331.014C211.104 331.076 210.365 331.479 209.703 331.806L209.307 331.712L208.973 330.71C207.944 330.622 207.287 331.201 206.351 331.301C204.154 331.537 202.283 329.635 199.95 330.731C198.967 331.193 197.922 331.773 196.82 331.729C196.147 331.105 195.958 329.703 195.235 329.409C194.623 329.998 194.375 330.553 194.143 331.369C192.952 335.565 192.556 340.197 191.841 344.513L186.896 374.661C186.014 380.148 185.483 385.969 184.074 391.334C183.842 395.514 181.502 402.836 182.091 406.438C185.776 408.504 192.164 407.95 195.021 411.303L195.053 411.785C193.167 412.529 188.527 410.22 187.509 410.822C187.284 410.955 186.904 411.579 186.72 411.81C186.617 411.75 186.517 411.686 186.412 411.63C185.655 411.227 184.794 411.428 184.028 411.697C183.406 411.915 183.036 412.141 182.569 412.595L182.666 413.003C184.164 413.306 185.754 413.572 187.189 414.103L187.097 414.307C185.12 414.364 182.971 413.528 181.072 413.006C171.006 410.239 161.591 406.637 152.103 402.311C151.11 402.494 150.12 402.675 149.12 402.817C145.528 401.202 142.173 398.896 138.876 396.762C125.018 387.786 112.118 377.535 101.112 365.163C99.2165 363.033 97.1043 360.887 95.4927 358.541Z"/>
	<path fill="#DF4A49" d="M177.555 397.235C179.471 395.061 180.751 392.751 183.511 391.552C183.092 395.846 182.392 400.495 181.374 404.688C181.388 404.285 181.387 403.883 181.398 403.481C181.449 401.571 178.728 398.75 177.555 397.235Z"/>
	<path fill="#F57070" d="M191.358 63.1231C191.638 63.1361 191.915 63.153 192.194 63.1892C194.119 63.4397 197.078 66.092 198.137 67.7219C198.581 68.4068 198.644 68.9263 198.535 69.698C196.505 69.8911 194.302 65.8945 192.2 65.1537C191.598 64.9415 191.033 64.9583 190.463 65.2554C189.528 65.7428 188.985 66.6779 188.637 67.63C188.648 68.5755 188.863 68.9776 189.39 69.7517C191.54 71.9305 193.492 74.0214 195.065 76.6621C191.502 74.624 189.053 71.4293 186.188 68.5577C187.941 66.3689 188.91 64.6569 191.358 63.1231Z"/>
	<path fill="#F96868" d="M73.7122 180.951C75.2385 180.861 76.8668 181.159 78.0893 182.118Q78.32 182.299 78.5308 182.504Q78.7416 182.708 78.9304 182.933Q79.1191 183.157 79.2838 183.4Q79.4485 183.643 79.5874 183.902Q79.7262 184.16 79.8378 184.432Q79.9494 184.703 80.0325 184.985Q80.1156 185.266 80.1694 185.555Q80.2231 185.843 80.247 186.136C80.3626 187.511 80.0057 188.916 79.0844 189.966C78.2227 190.948 76.888 191.37 75.6253 191.469C74.1473 191.013 73.6017 190.592 72.5937 189.438C71.1853 187.827 70.4041 186.364 70.5686 184.151C70.5755 184.059 70.5849 183.967 70.5931 183.875L70.3626 184.704C70.4192 184.206 70.4632 183.626 70.6768 183.168C71.1599 182.132 72.6714 181.239 73.7122 180.951Z"/>
	<path fill="#F57070" d="M182.525 71.9408C184.075 71.6526 185.778 71.522 187.204 72.3099Q187.423 72.4291 187.629 72.5697Q187.835 72.7103 188.026 72.8709Q188.217 73.0315 188.391 73.2104Q188.564 73.3894 188.719 73.5849Q188.874 73.7804 189.009 73.9905Q189.143 74.2006 189.256 74.4231Q189.369 74.6457 189.458 74.8784Q189.548 75.1111 189.614 75.3517C190.031 76.861 189.778 78.4427 188.966 79.7733C187.862 81.5809 186.484 81.8966 184.555 82.3042C185.293 83.5668 186.632 84.9629 187.008 86.3601L186.616 86.7903C185.122 85.2704 177.256 78.2845 177.122 76.7858C177.505 76.6417 177.855 76.5491 178.257 76.4882C178.82 76.403 180.673 73.1006 182.525 71.9408Z"/>
	<path fill="#F96868" d="M182.842 72.8138C185.128 72.6938 186.158 73.0156 188.07 74.2711C188.361 75.5179 188.757 77.1151 188.396 78.3674C188.011 79.7055 186.968 80.2871 185.864 80.9697C185.292 81.0066 184.634 81.0754 184.061 80.9948C182.78 80.8143 181.45 80.1416 180.7 79.064Q180.493 78.7688 180.35 78.4383Q180.206 78.1079 180.131 77.7554Q180.056 77.403 180.052 77.0427Q180.049 76.6823 180.117 76.3285C180.458 74.6379 181.456 73.7227 182.842 72.8138Z"/>
	<path fill="#BD2A28" d="M358.342 87.3511C356.631 86.5397 352.418 79.9258 350.594 78.0366C342.744 69.903 333.912 61.7271 324.561 55.3476C322.594 54.0056 309.018 45.7442 308.609 45.0005L309.113 44.6114C315.621 47.899 321.527 51.7706 327.735 55.5598C329.352 56.5466 331.25 57.2698 332.793 58.2779C332.68 58.8008 332.528 59.0894 332.828 59.5837C333.572 60.808 339.891 65.3809 341.546 66.7503C345.419 69.9543 348.773 73.7478 352.561 77.0509C353.285 76.9508 353.734 76.6903 354.344 76.3224L354.72 76.4323C354.434 77.6917 354.12 78.338 354.851 79.4668C355.679 80.7452 357.469 82.7216 358.657 83.666C359.032 83.9635 360.11 84.1167 360.589 84.206L360.79 84.2422C360.418 85.3526 359.889 86.3923 359.853 87.5711C359.518 87.3044 359.182 87.0574 358.824 86.8212L358.342 87.3511Z"/>
	<path fill="#BD2A28" d="M173.445 130.13C172.298 132.096 164.784 136.925 162.431 138.833C151.18 147.956 139.321 163.554 134.614 177.265C133.995 179.068 131.715 183.509 131.872 184.885L132.032 184.983C132.978 183.928 133.487 181.484 134.056 180.114C135.486 176.664 138.266 170.829 140.924 168.27L140.23 170.135C133.622 181.569 130.324 190.997 127.911 203.96C125.706 207.688 125.315 230.806 125.738 236.051Q126.515 245.082 128.69 253.881C130.139 259.545 131.81 265.28 134.238 270.611C135.736 273.898 137.599 277.015 139.222 280.24C139.418 280.628 139.394 280.433 139.328 280.825L139.143 280.666L139.356 280.421C138.301 280.162 137.118 278.178 136.403 277.277C137.903 282.696 142.243 287.837 145.66 292.209C147.389 294.422 148.641 296.93 150.408 299.103C155.788 305.715 162.343 310.852 169.306 315.68C170.511 316.515 171.631 317.604 172.886 318.331C173.475 318.673 174.311 319.003 175.005 318.843C175.817 318.655 176.51 317.878 177.35 318.376C178.811 319.243 179.5 321.266 180.857 322.276C180.628 322.11 180.554 321.977 180.406 321.742L181.108 321.844L181.065 321.07C180.965 321.014 180.864 320.96 180.766 320.9C178.931 319.779 178.263 316.913 176.602 315.64C173.545 313.298 163.954 308.268 162.717 304.684C168.847 310.037 178.785 317.608 186.617 320.028C187.983 321.468 190.318 323.808 192.373 324.079C196.29 326.534 200.796 328.27 205.272 329.351C220.622 333.058 238.792 330.187 253.152 324.062C258.584 321.745 263.677 318.746 268.717 315.69C267.403 318.827 253.845 324.38 250.245 325.866C244.753 328.133 237.067 330.068 231.173 330.812C229.222 331.058 227.222 330.856 225.266 331.028C223.56 331.178 222.111 331.513 220.362 331.451C217.606 331.354 214.578 330.786 211.85 331.014C211.104 331.076 210.365 331.479 209.703 331.806L209.307 331.712L208.973 330.71C207.944 330.622 207.287 331.201 206.351 331.301C204.154 331.537 202.283 329.635 199.95 330.731C198.967 331.193 197.922 331.773 196.82 331.729C196.147 331.105 195.958 329.703 195.235 329.409C194.623 329.998 194.375 330.553 194.143 331.369C192.952 335.565 192.556 340.197 191.841 344.513L186.896 374.661C186.014 380.148 185.483 385.969 184.074 391.334C183.842 395.514 181.502 402.836 182.091 406.438C185.776 408.504 192.164 407.95 195.021 411.303L195.053 411.785C193.167 412.529 188.527 410.22 187.509 410.822C187.284 410.955 186.904 411.579 186.72 411.81C186.617 411.75 186.517 411.686 186.412 411.63C185.655 411.227 184.794 411.428 184.028 411.697C183.406 411.915 183.036 412.141 182.569 412.595L182.666 413.003C184.164 413.306 185.754 413.572 187.189 414.103L187.097 414.307C185.12 414.364 182.971 413.528 181.072 413.006C171.006 410.239 161.591 406.637 152.103 402.311C151.11 402.494 150.12 402.675 149.12 402.817C145.528 401.202 142.173 398.896 138.876 396.762C125.018 387.786 112.118 377.535 101.112 365.163C99.2165 363.033 97.1043 360.887 95.4927 358.541L95.9432 358.26C99.0946 361.762 102.081 365.479 105.373 368.846Q109.264 372.817 113.385 376.549Q117.506 380.28 121.842 383.76Q126.178 387.24 130.714 390.455Q135.25 393.67 139.969 396.609C141.266 397.427 145.461 400.55 146.782 400.656C148.148 400.766 150.002 400.438 151.269 400.917C155.884 402.66 158.652 405.563 163.819 406.152C164.851 406.27 165.769 406.449 166.742 406.034C168.146 405.435 170.054 406.645 171.497 406.013C171.195 405.645 171.391 405.757 170.994 405.679C168.21 405.125 165.706 403.633 163.039 402.727C142.099 395.612 113.681 376.198 99.6396 359.039C101.648 360.039 105.639 364.855 107.426 366.585C109.715 368.8 112.111 370.917 114.505 373.018C133.057 389.309 156.749 402.362 180.828 408.113C180.908 407.174 181.016 406.284 181.23 405.366L181.374 404.688C182.392 400.495 183.092 395.846 183.511 391.552L183.653 391.23C185.384 381.834 186.763 372.342 188.311 362.912Q191.298 345.405 194.012 327.854C169.298 320.7 149.401 303.396 136.954 281.089C122.014 254.312 119.4 221.475 127.751 192.193C133.76 171.123 146.352 151.214 163.363 137.313C166.565 134.696 169.82 132.142 173.445 130.13Z"/>
	<path fill="#DF4A49" d="M180.828 408.113C180.908 407.174 181.016 406.284 181.23 405.366C181.268 405.783 181.203 406.664 181.542 406.912C183.011 407.983 188.628 409.022 190.826 409.765C192.027 410.172 193.155 410.739 194.318 411.239C190.022 410.661 184.78 409.925 180.828 408.113Z"/>
</svg>
